HIERARCHY
ROOT root
{
	OFFSET	0	13.1	24.9
	CHANNELS 6  Xposition Yposition Zposition Xrotation Yrotation Zrotation
	JOINT spine_1
	{
		OFFSET	0	9.99999	0
		CHANNELS 3  Xrotation Yrotation Zrotation
		JOINT spine_2
		{
			OFFSET	0	112	-10
			CHANNELS 3  Xrotation Yrotation Zrotation
			JOINT spine_3
			{
				OFFSET	0	206.5	19.3
				CHANNELS 3  Xrotation Yrotation Zrotation
				JOINT spine_4
				{
					OFFSET	0	110.4	14.6
					CHANNELS 3  Xrotation Yrotation Zrotation
					JOINT neck_1
					{
						OFFSET	0	71.8	-50.3
						CHANNELS 3  Xrotation Yrotation Zrotation
						JOINT neck_2
						{
							OFFSET	0	86.2	-25.8
							CHANNELS 3  Xrotation Yrotation Zrotation
							JOINT head_ee
							{
								OFFSET	0	179.8	-8.7
								CHANNELS 3  Xrotation Yrotation Zrotation
								End Site
								{
									OFFSET	1	0	0
								}
							}
						}
					}
					JOINT left_clavicle
					{
						OFFSET	-43.2	22.4	-70.8
						CHANNELS 3  Xrotation Yrotation Zrotation
						JOINT left_shoulder
						{
							OFFSET	-93.9	-5.79999	48.7
							CHANNELS 3  Xrotation Yrotation Zrotation
							JOINT left_elbow
							{
								OFFSET	-291.4	-30.8	15.2
								CHANNELS 3  Xrotation Yrotation Zrotation
								JOINT left_lowarm_twist
								{
									OFFSET	-110.7	-3.89999	13.6
									CHANNELS 3  Xrotation Yrotation Zrotation
									JOINT left_hand
									{
										OFFSET	-110.7	-3.89999	13.6
										CHANNELS 3  Xrotation Yrotation Zrotation
										JOINT left_ee
										{
											OFFSET	-80.8	-5.10001	12.1
											CHANNELS 3  Xrotation Yrotation Zrotation
											End Site
											{
												OFFSET	1	0	0
											}
										}
									}
								}
							}
						}
					}
					JOINT right_clavicle
					{
						OFFSET	43.2	22.4	-70.8
						CHANNELS 3  Xrotation Yrotation Zrotation
						JOINT right_shoulder
						{
							OFFSET	93.9	-5.79999	48.7
							CHANNELS 3  Xrotation Yrotation Zrotation
							JOINT right_elbow
							{
								OFFSET	291.4	-30.8	15.2
								CHANNELS 3  Xrotation Yrotation Zrotation
								JOINT right_lowarm_twist
								{
									OFFSET	110.7	-3.89999	13.6
									CHANNELS 3  Xrotation Yrotation Zrotation
									JOINT right_hand
									{
										OFFSET	110.7	-3.89999	13.6
										CHANNELS 3  Xrotation Yrotation Zrotation
										JOINT right_ee
										{
											OFFSET	80.8	-5.10001	12.1
											CHANNELS 3  Xrotation Yrotation Zrotation
											End Site
											{
												OFFSET	1	0	0
											}
										}
									}
								}
							}
						}
					}
				}
			}
		}
	}
	JOINT left_hip
	{
		OFFSET	-82.8	-127.5	0.300001
		CHANNELS 3  Xrotation Yrotation Zrotation
		JOINT left_knee
		{
			OFFSET	-28.2	-396.7	2.2
			CHANNELS 3  Xrotation Yrotation Zrotation
			JOINT left_ankle
			{
				OFFSET	-11.7	-411.3	35.4
				CHANNELS 3  Xrotation Yrotation Zrotation
				JOINT left_toes
				{
					OFFSET	0	-60	-88.6
					CHANNELS 3  Xrotation Yrotation Zrotation
					JOINT left_foot_ee
					{
						OFFSET	-22.5	-16.5	-42.2
						CHANNELS 3  Xrotation Yrotation Zrotation
						End Site
						{
							OFFSET	1	0	0
						}
					}
				}
			}
		}
	}
	JOINT right_hip
	{
		OFFSET	82.8	-127.5	0.300001
		CHANNELS 3  Xrotation Yrotation Zrotation
		JOINT right_knee
		{
			OFFSET	28.2	-396.7	2.2
			CHANNELS 3  Xrotation Yrotation Zrotation
			JOINT right_ankle
			{
				OFFSET	11.7	-411.3	35.4
				CHANNELS 3  Xrotation Yrotation Zrotation
				JOINT right_toes
				{
					OFFSET	0	-60	-88.6
					CHANNELS 3  Xrotation Yrotation Zrotation
					JOINT right_foot_ee
					{
						OFFSET	22.5	-16.5	-42.2
						CHANNELS 3  Xrotation Yrotation Zrotation
						End Site
						{
							OFFSET	1	0	0
						}
					}
				}
			}
		}
	}
}
MOTION
Frames: 14
Frame Time: 0.02
406.531494632 702.453 -1215.1869739 -167.648464201 -39.1310979666 -174.583363689 4.05084 0.391796 3.67957 4.05836 0.157025 3.69701 4.06399 -0.363835 3.68244 4.04514 0.221894 3.69369 -13.4123 14.4294 -4.75567 -14.0605 30.3991 0.130384 -0.0 0.0 -0.0 -7.79069 16.5672 -10.4495 -3.38842 -22.1945 60.8346 2.79975 -54.1974 1.43283 24.5099 0.203171 -3.10055 1.01453 -6.9546 3.89994 -0.0 0.0 -0.0 11.1316 17.5865 -22.1056 -34.1616 37.5529 -66.1588 0.513504 14.2721 -0.0642889 31.9946 -0.000410238 4.03446 2.04076 -15.2002 -19.245 0.0 0.0 0.0 -3.83992 69.2515 7.87073 -11.2166 0.296906 1.69303 25.0962 -27.527 -4.0349 31.7762 -0.0 -0.0 -0.0 0.0 -0.0 18.0563 25.03 1.12681 -15.6195 -0.322083 -2.36794 37.8605 0.901777 4.69436 20.9299 -0.0 -0.0 0.0 0.0 0.0 
406.466082756 702.453 -1215.27763183 -167.587457384 -39.4706022629 -174.487046549 4.05084 0.391796 3.67957 4.05836 0.157025 3.69701 4.06399 -0.363835 3.68244 4.04514 0.221894 3.69369 -13.4123 14.4294 -4.75567 -14.0605 30.3991 0.130384 -0.0 0.0 -0.0 -7.79069 16.5672 -10.4495 -3.38842 -22.1945 60.8346 2.79975 -54.1974 1.43283 24.5099 0.203171 -3.10055 1.01453 -6.9546 3.89994 -0.0 0.0 -0.0 11.1316 17.5865 -22.1056 -34.1616 37.5529 -66.1588 0.513504 14.2721 -0.0642889 31.9946 -0.000410238 4.03446 2.04076 -15.2002 -19.245 0.0 0.0 0.0 -3.83992 69.2515 7.87073 -11.2166 0.296906 1.69303 25.0962 -27.527 -4.0349 31.7762 -0.0 -0.0 -0.0 0.0 -0.0 18.0563 25.03 1.12681 -15.6195 -0.322083 -2.36794 37.8605 0.901777 4.69436 20.9299 -0.0 -0.0 0.0 0.0 0.0 
406.451193597 702.453 -1215.29810658 -167.573497915 -39.5474737233 -174.4651046 4.05084 0.391796 3.67957 4.05836 0.157025 3.69701 4.06399 -0.363835 3.68244 4.04514 0.221894 3.69369 -13.4123 14.4294 -4.75567 -14.0605 30.3991 0.130384 -0.0 0.0 -0.0 -7.79069 16.5672 -10.4495 -3.38842 -22.1945 60.8346 2.79975 -54.1974 1.43283 24.5099 0.203171 -3.10055 1.01453 -6.9546 3.89994 -0.0 0.0 -0.0 11.1316 17.5865 -22.1056 -34.1616 37.5529 -66.1588 0.513504 14.2721 -0.0642889 31.9946 -0.000410238 4.03446 2.04076 -15.2002 -19.245 0.0 0.0 0.0 -3.83992 69.2515 7.87073 -11.2166 0.296906 1.69303 25.0962 -27.527 -4.0349 31.7762 -0.0 -0.0 -0.0 0.0 -0.0 18.0563 25.03 1.12681 -15.6195 -0.322083 -2.36794 37.8605 0.901777 4.69436 20.9299 -0.0 -0.0 0.0 0.0 0.0 
406.369587854 702.453 -1215.40928769 -167.496500642 -39.966178564 -174.344708888 4.05084 0.391796 3.67957 4.05836 0.157025 3.69701 4.06399 -0.363835 3.68244 4.04514 0.221894 3.69369 -13.4123 14.4294 -4.75567 -14.0605 30.3991 0.130384 -0.0 0.0 -0.0 -7.79069 16.5672 -10.4495 -3.38842 -22.1945 60.8346 2.79975 -54.1974 1.43283 24.5099 0.203171 -3.10055 1.01453 -6.9546 3.89994 -0.0 0.0 -0.0 11.1316 17.5865 -22.1056 -34.1616 37.5529 -66.1588 0.513504 14.2721 -0.0642889 31.9946 -0.000410238 4.03446 2.04076 -15.2002 -19.245 0.0 0.0 0.0 -3.83992 69.2515 7.87073 -11.2166 0.296906 1.69303 25.0962 -27.527 -4.0349 31.7762 -0.0 -0.0 -0.0 0.0 -0.0 18.0563 25.03 1.12681 -15.6195 -0.322083 -2.36794 37.8605 0.901777 4.69436 20.9299 -0.0 -0.0 0.0 0.0 0.0 
406.19697804 702.453 -1215.63885513 -167.330865567 -40.8377617105 -174.089164453 4.05084 0.391796 3.67957 4.05836 0.157025 3.69701 4.06399 -0.363835 3.68244 4.04514 0.221894 3.69369 -13.4123 14.4294 -4.75567 -14.0605 30.3991 0.130384 -0.0 0.0 -0.0 -7.79069 16.5672 -10.4495 -3.38842 -22.1945 60.8346 2.79975 -54.1974 1.43283 24.5099 0.203171 -3.10055 1.01453 -6.9546 3.89994 -0.0 0.0 -0.0 11.1316 17.5865 -22.1056 -34.1616 37.5529 -66.1588 0.513504 14.2721 -0.0642889 31.9946 -0.000410238 4.03446 2.04076 -15.2002 -19.245 0.0 0.0 0.0 -3.83992 69.2515 7.87073 -11.2166 0.296906 1.69303 25.0962 -27.527 -4.0349 31.7762 -0.0 -0.0 -0.0 0.0 -0.0 18.0563 25.03 1.12681 -15.6195 -0.322083 -2.36794 37.8605 0.901777 4.69436 20.9299 -0.0 -0.0 0.0 0.0 0.0 
405.971232841 702.453 -1215.92825033 -167.108338845 -41.9506898338 -173.752649536 4.05084 0.391796 3.67957 4.05836 0.157025 3.69701 4.06399 -0.363835 3.68244 4.04514 0.221894 3.69369 -13.4123 14.4294 -4.75567 -14.0605 30.3991 0.130384 -0.0 0.0 -0.0 -7.79069 16.5672 -10.4495 -3.38842 -22.1945 60.8346 2.79975 -54.1974 1.43283 24.5099 0.203171 -3.10055 1.01453 -6.9546 3.89994 -0.0 0.0 -0.0 11.1316 17.5865 -22.1056 -34.1616 37.5529 -66.1588 0.513504 14.2721 -0.0642889 31.9946 -0.000410238 4.03446 2.04076 -15.2002 -19.245 0.0 0.0 0.0 -3.83992 69.2515 7.87073 -11.2166 0.296906 1.69303 25.0962 -27.527 -4.0349 31.7762 -0.0 -0.0 -0.0 0.0 -0.0 18.0563 25.03 1.12681 -15.6195 -0.322083 -2.36794 37.8605 0.901777 4.69436 20.9299 -0.0 -0.0 0.0 0.0 0.0 
409.764398873 704.381 -1222.25057282 -166.738063816 -45.8399221169 -173.69627617 3.719 0.229978 3.88873 3.72741 -0.0177471 3.89548 3.72188 -0.588245 3.85091 3.7012 0.0268379 3.89542 -14.6233 14.3441 -3.75725 -15.3942 29.6355 1.40226 -0.0 0.0 -0.0 -7.43967 15.7593 -10.1289 -2.04316 -21.4754 60.1913 3.00388 -56.0864 1.60036 23.2653 0.22498 -2.94307 1.06502 -10.0287 2.92911 -0.0 0.0 -0.0 11.0378 18.3171 -21.8511 -35.2676 36.8216 -66.1269 0.523317 14.5334 -0.0667296 32.3597 0.0125874 4.07927 2.0294 -16.581 -19.6018 0.0 0.0 0.0 -9.86472 70.2192 13.044 -12.5394 0.30992 1.89557 22.6164 -26.1768 -3.63574 33.156 -0.0 -0.0 -0.0 0.0 -0.0 25.5844 27.2664 -3.25473 -22.3792 -0.259794 -3.40265 39.9718 2.19051 4.89318 18.3875 -0.0 -0.0 0.0 0.0 0.0 
422.850316243 700.083 -1228.2812438 -168.401036135 -49.9715372817 -175.841175672 3.30267 0.161645 4.02332 3.31167 -0.0944862 4.02545 3.30137 -0.712591 3.96311 3.27946 -0.0782782 4.0258 -17.4344 14.3709 -1.50545 -18.4548 28.4285 4.3117 -0.0 0.0 -0.0 -7.03609 14.7719 -9.75875 -0.893346 -22.1466 59.2791 3.20937 -57.8174 1.77263 20.2177 0.263899 -2.55577 1.30939 -13.7737 2.95106 -0.0 0.0 -0.0 10.8141 18.1692 -21.3544 -37.4039 36.6173 -65.6907 0.54999 15.2404 -0.0735825 32.5738 0.0203418 4.10551 1.96459 -18.512 -19.7649 0.0 0.0 0.0 -26.009 71.7915 25.6213 -12.6238 0.310591 1.90849 21.504 -27.2045 -3.52145 31.8311 -0.0 -0.0 -0.0 0.0 -0.0 38.2469 33.0605 -11.1835 -46.3949 0.922888 -6.86922 40.2698 -5.63129 4.88143 20.9441 -0.0 -0.0 0.0 0.0 0.0 
422.229774333 700.083 -1229.07484964 -168.035075956 -51.4080426119 -175.368230519 3.30267 0.161645 4.02332 3.31167 -0.0944862 4.02545 3.30137 -0.712591 3.96311 3.27946 -0.0782782 4.0258 -17.4344 14.3709 -1.50545 -18.4548 28.4285 4.3117 -0.0 0.0 -0.0 -7.03609 14.7719 -9.75875 -0.893346 -22.1466 59.2791 3.20937 -57.8174 1.77263 20.2177 0.263899 -2.55577 1.30939 -13.7737 2.95106 -0.0 0.0 -0.0 10.8141 18.1692 -21.3544 -37.4039 36.6173 -65.6907 0.54999 15.2404 -0.0735825 32.5738 0.0203418 4.10551 1.96459 -18.512 -19.7649 0.0 0.0 0.0 -26.009 71.7915 25.6213 -12.6238 0.310591 1.90849 21.504 -27.2045 -3.52145 31.8311 -0.0 -0.0 -0.0 0.0 -0.0 38.2469 33.0605 -11.1835 -46.3949 0.922888 -6.86922 40.2698 -5.63129 4.88143 20.9441 -0.0 -0.0 0.0 0.0 0.0 
439.089334884 696.696 -1233.85378049 -160.885034251 -57.8984275316 -168.346863043 2.95429 0.627041 4.24991 2.96427 0.355591 4.28112 2.98791 -0.329603 4.28319 2.96249 0.350347 4.28155 -15.7451 12.4855 -0.715191 -16.3484 24.3303 3.80736 -0.0 0.0 -0.0 -5.53552 7.31205 -9.13556 7.04464 -16.0047 56.9183 4.97102 -67.8738 3.34618 2.18154 0.0717395 -0.269382 1.83826 -19.1534 4.07659 -0.0 0.0 -0.0 10.9441 12.6303 -21.8765 -42.2016 38.3581 -67.0093 0.504752 14.0385 -0.0621485 34.7007 0.102696 4.36459 1.56089 -22.2415 -18.3085 0.0 0.0 0.0 -36.8695 70.6364 38.9479 6.10563 -0.29913 -0.888462 1.58148 -29.5652 -0.292196 17.119 -0.0 -0.0 -0.0 0.0 -0.0 63.0054 39.562 -26.1349 -39.0624 0.408199 -5.86659 -26.0213 -28.3628 -4.15775 27.5708 -0.0 -0.0 0.0 0.0 0.0 
451.291828458 696.923 -1236.32341566 -156.626953699 -62.5999749722 -162.850750409 2.84585 0.598171 4.08327 2.85506 0.337355 4.11299 2.87685 -0.328854 4.11368 2.85339 0.324387 4.11403 -15.4913 12.5598 -1.0298 -16.0917 24.6452 3.48394 -0.0 0.0 -0.0 -5.67487 7.70313 -9.29678 8.17987 -15.1444 56.7322 6.28157 -72.1513 4.57866 -4.12807 -0.163614 0.501547 1.61618 -15.5822 4.21223 -0.0 0.0 -0.0 10.6203 10.3856 -21.193 -42.8229 38.7842 -66.872 0.491027 13.6714 -0.0588619 36.1345 0.163622 4.53746 1.48854 -24.8028 -18.5991 0.0 0.0 0.0 -25.3812 65.7875 26.9326 3.35862 -0.152808 -0.492612 7.63023 -29.4701 -1.37756 19.0409 -0.0 -0.0 -0.0 0.0 -0.0 60.2931 38.6948 -24.012 -25.7968 -0.181975 -3.92127 -21.0222 -26.9829 -3.32954 26.8454 -0.0 -0.0 0.0 0.0 0.0 
524.569271601 689.633 -1239.96837483 -148.507861042 -68.7997374058 -152.930627914 2.90577 0.441509 3.41497 2.91223 0.223442 3.43611 2.92381 -0.32959 3.42757 2.90748 0.215537 3.43661 -14.4051 10.8914 -2.58932 -14.8093 22.3525 1.16134 -0.0 0.0 -0.0 -5.89713 11.6478 -8.68733 9.4945 -17.4997 58.3545 9.01941 -77.334 7.22274 -12.7196 -0.617618 1.50114 1.20732 -7.27117 5.07087 -0.0 0.0 -0.0 10.0842 8.2571 -20.0297 -47.4966 40.3237 -67.0148 0.494039 13.752 -0.0595758 37.4173 0.221787 4.6908 0.579656 -29.2601 -14.6334 0.0 0.0 0.0 -19.9538 57.2833 17.5558 -1.3514 0.0532805 0.200543 14.7576 -30.5438 -2.61675 17.7301 -0.0 -0.0 -0.0 0.0 -0.0 47.6007 40.5541 -17.6919 2.2189 0.0977127 0.326441 -17.9913 -21.8739 -2.77517 18.3042 -0.0 -0.0 0.0 0.0 0.0 
524.101718383 689.633 -1241.67524474 -147.485006272 -69.4243422698 -151.835842348 2.90577 0.441509 3.41497 2.91223 0.223442 3.43611 2.92381 -0.32959 3.42757 2.90748 0.215537 3.43661 -14.4051 10.8914 -2.58932 -14.8093 22.3525 1.16134 -0.0 0.0 -0.0 -5.89713 11.6478 -8.68733 9.4945 -17.4997 58.3545 9.01941 -77.334 7.22274 -12.7196 -0.617618 1.50114 1.20732 -7.27117 5.07087 -0.0 0.0 -0.0 10.0842 8.2571 -20.0297 -47.4966 40.3237 -67.0148 0.494039 13.752 -0.0595758 37.4173 0.221787 4.6908 0.579656 -29.2601 -14.6334 0.0 0.0 0.0 -19.9538 57.2833 17.5558 -1.3514 0.0532805 0.200543 14.7576 -30.5438 -2.61675 17.7301 -0.0 -0.0 -0.0 0.0 -0.0 47.6007 40.5541 -17.6919 2.2189 0.0977127 0.326441 -17.9913 -21.8739 -2.77517 18.3042 -0.0 -0.0 0.0 0.0 0.0 
524.194491695 689.633 -1241.34331434 -147.689157165 -69.3032550681 -152.053990101 2.90577 0.441509 3.41497 2.91223 0.223442 3.43611 2.92381 -0.32959 3.42757 2.90748 0.215537 3.43661 -14.4051 10.8914 -2.58932 -14.8093 22.3525 1.16134 -0.0 0.0 -0.0 -5.89713 11.6478 -8.68733 9.4945 -17.4997 58.3545 9.01941 -77.334 7.22274 -12.7196 -0.617618 1.50114 1.20732 -7.27117 5.07087 -0.0 0.0 -0.0 10.0842 8.2571 -20.0297 -47.4966 40.3237 -67.0148 0.494039 13.752 -0.0595758 37.4173 0.221787 4.6908 0.579656 -29.2601 -14.6334 0.0 0.0 0.0 -19.9538 57.2833 17.5558 -1.3514 0.0532805 0.200543 14.7576 -30.5438 -2.61675 17.7301 -0.0 -0.0 -0.0 0.0 -0.0 47.6007 40.5541 -17.6919 2.2189 0.0977127 0.326441 -17.9913 -21.8739 -2.77517 18.3042 -0.0 -0.0 0.0 0.0 0.0 
